<?xml version="1.0" encoding="UTF-8" standalone="no"?>
<!-- Created with Inkscape (http://www.inkscape.org/) -->

<svg
   xmlns:dc="http://purl.org/dc/elements/1.1/"
   xmlns:cc="http://creativecommons.org/ns#"
   xmlns:rdf="http://www.w3.org/1999/02/22-rdf-syntax-ns#"
   xmlns:svg="http://www.w3.org/2000/svg"
   xmlns="http://www.w3.org/2000/svg"
   xmlns:sodipodi="http://sodipodi.sourceforge.net/DTD/sodipodi-0.dtd"
   xmlns:inkscape="http://www.inkscape.org/namespaces/inkscape"
   version="1.1"
   id="svg4673"
   width="295.46298"
   height="295.69598"
   viewBox="0 0 295.46298 295.69598"
   sodipodi:docname="postman.svg"
   inkscape:version="0.92.5 (2060ec1f9f, 2020-04-08)">
  <metadata
     id="metadata4679">
    <rdf:RDF>
      <cc:Work
         rdf:about="">
        <dc:format>image/svg+xml</dc:format>
        <dc:type
           rdf:resource="http://purl.org/dc/dcmitype/StillImage" />
        <dc:title></dc:title>
      </cc:Work>
    </rdf:RDF>
  </metadata>
  <defs
     id="defs4677" />
  <sodipodi:namedview
     pagecolor="#ffffff"
     bordercolor="#666666"
     borderopacity="1"
     objecttolerance="10"
     gridtolerance="10"
     guidetolerance="10"
     inkscape:pageopacity="0"
     inkscape:pageshadow="2"
     inkscape:window-width="1848"
     inkscape:window-height="920"
     id="namedview4675"
     showgrid="false"
     fit-margin-top="0"
     fit-margin-left="0"
     fit-margin-right="0"
     fit-margin-bottom="0"
     inkscape:zoom="1.3333333"
     inkscape:cx="103.66178"
     inkscape:cy="144.89704"
     inkscape:window-x="72"
     inkscape:window-y="27"
     inkscape:window-maximized="1"
     inkscape:current-layer="svg4673" />
  <g
     id="g4829"
     transform="translate(-309.00502,73.368524)">
    <path
       inkscape:connector-curvature="0"
       id="path4813"
       d="m 448.99484,221.95792 c -0.43753,-0.13589 -3.77861,-0.47024 -7.42463,-0.74299 -6.37455,-0.47688 -9.16048,-0.88848 -14.31891,-2.11551 -1.31256,-0.31222 -3.22175,-0.69935 -4.24264,-0.86028 -3.80557,-0.59993 -18.39754,-5.19604 -22.53903,-7.09924 -1.16672,-0.53617 -3.07591,-1.39416 -4.24264,-1.90667 -4.45436,-1.95665 -12.53975,-6.05541 -14.00919,-7.10174 -0.84376,-0.60081 -1.70179,-1.09239 -1.90673,-1.09239 -0.77254,0 -15.57515,-10.61722 -18.10506,-12.98591 -0.62729,-0.58731 -2.50952,-2.26108 -4.18274,-3.71949 -3.86933,-3.37257 -7.7444,-7.24765 -11.11698,-11.11697 -1.4584,-1.67322 -3.12894,-3.55921 -3.71231,-4.19109 -2.80149,-3.03447 -12.99308,-17.25501 -12.99308,-18.12952 0,-0.17184 -0.67098,-1.31003 -1.49106,-2.52931 -1.52592,-2.2687 -7.52455,-14.37832 -7.52455,-15.19003 0,-0.38716 -0.9155,-2.40098 -2.71805,-5.97895 -0.25516,-0.50648 -0.46394,-1.38733 -0.46394,-1.95743 0,-0.57011 -0.21015,-1.16644 -0.467,-1.32519 -0.25686,-0.15875 -0.59034,-0.82911 -0.74107,-1.48971 -0.15073,-0.66059 -0.89783,-3.22959 -1.66023,-5.70888 -0.7624,-2.4793 -1.88856,-6.89429 -2.50257,-9.81111 -0.61401,-2.91681 -1.34207,-6.37722 -1.61791,-7.68978 -2.09001,-9.9454 -2.3868,-42.90772 -0.42736,-47.46455 0.25084,-0.58336 0.57221,-1.89593 0.71414,-2.91681 0.14193,-1.02089 0.52862,-3.0494 0.85932,-4.50781 0.3307,-1.45841 0.80268,-3.72557 1.04887,-5.03813 0.67913,-3.62098 2.97455,-11.26493 5.335,-17.76606 0.39033,-1.07504 1.35492,-3.26125 3.97785,-9.01561 2.40744,-5.2816201 5.62745,-11.58092006 6.68352,-13.07496006 0.54727,-0.77423004 0.99504,-1.53081004 0.99504,-1.68129004 0,-0.69352 6.95983,-10.4049899 12.95905,-18.0825409 2.66405,-3.409336 14.00247,-14.645374 19.12592,-18.953208 4.69724,-3.949479 15.55162,-11.697056 18.5968,-13.273905 0.85566,-0.443078 2.98763,-1.619085 4.73772,-2.613349 8.70841,-4.947434 20.8457,-9.978832 30.49398,-12.640986 1.31257,-0.362164 2.80088,-0.873869 3.30737,-1.137122 0.50648,-0.263252 1.46108,-0.478837 2.12132,-0.479075 1.25575,-4.54e-4 8.82995,-1.490708 9.41536,-1.85251 0.18575,-0.114801 3.87349,-0.580122 8.19498,-1.034048 14.26721,-1.498616 34.94222,-0.782217 45.10839,1.563027 2.04177,0.471019 4.78623,0.97903 6.09879,1.128915 1.31257,0.149884 2.86379,0.466534 3.44715,0.703665 0.58336,0.237131 2.13458,0.731406 3.44714,1.098388 8.5869,2.400817 18.18959,6.234259 27.312,10.903078 9.0678,4.640871 10.87177,5.661326 10.87177,6.14986 0,0.237568 0.29831,0.432234 0.66291,0.432589 0.3646,3.57e-4 1.35145,0.592797 2.193,1.316534 0.84154,0.723737 2.75073,2.094802 4.24264,3.046811 3.17272,2.024564 3.18693,2.035243 8.01586,6.026323 5.71438,4.722904 11.56571,10.413013 16.76601,16.304085 0.98755,1.118727 2.4824,2.787573 3.32189,3.708543 0.83949,0.920972 3.22303,4.062676 5.29676,6.981566 2.07372,2.91888 3.9557,5.5457099 4.18216,5.8373899 2.71644,3.49864 9.19958,15.45309 11.79195,21.7435401 0.84144,2.04177 1.69822,3.95096 1.90396,4.24264 0.20574,0.29168 0.74196,1.60425 1.19159,2.91681 0.44963,1.31257 1.4302,4.05599 2.17903,6.0965 0.74884,2.04051 1.36152,4.13192 1.36152,4.64759 0,0.51566 0.23752,1.35196 0.52782,1.85845 0.67402,1.17594 3.7554,16.19266 4.3242,21.07342 0.94635,8.12044 1.08245,26.28711 0.25627,34.20629 -0.72375,6.93735 -3.38247,21.55862 -4.53244,24.92552 -0.24906,0.7292 -0.74637,2.39974 -1.10512,3.71231 -0.35876,1.31257 -0.89566,2.9831 -1.19313,3.71231 -0.29746,0.7292 -0.71561,1.80312 -0.92923,2.38648 -1.39871,3.81966 -4.26253,10.41642 -6.79176,15.64474 -2.71851,5.6196 -9.21492,16.8588 -10.11187,17.4942 -0.21108,0.14952 -1.79242,2.30037 -3.5141,4.77967 -1.72167,2.47929 -3.26472,4.62713 -3.429,4.77297 -0.16427,0.14584 -1.72634,1.9357 -3.47127,3.97747 -5.7392,6.71553 -14.07488,14.53725 -22.53305,21.14369 -2.11044,1.64842 -12.67814,8.81996 -12.99673,8.81996 -0.19963,0 -1.0533,0.49158 -1.89706,1.09239 -1.46944,1.04633 -9.55483,5.14509 -14.0092,7.10174 -1.16672,0.51251 -3.07591,1.36688 -4.24264,1.89862 -2.95363,1.34612 -7.68682,3.00173 -12.99309,4.54482 -2.47929,0.721 -4.9851,1.52258 -5.56846,1.78129 -0.58336,0.2587 -2.01526,0.60301 -3.18198,0.76513 -1.16673,0.16212 -3.19524,0.55334 -4.50781,0.86938 -4.77406,1.14951 -7.7839,1.6563 -12.46275,2.09846 -5.84005,0.55189 -24.09381,1.10767 -25.19068,0.76699 z m -53.03301,-62.8735 c 0,-1.26422 -13.3638,-14.79064 -14.61282,-14.79064 -0.79826,0 -11.58821,10.61055 -12.072,11.87128 -0.68216,1.77768 0.82029,2.35104 7.0626,2.69518 3.35434,0.18493 8.36596,0.52033 11.13694,0.74533 8.77686,0.71267 8.48528,0.73058 8.48528,-0.52115 z m 5.19723,-1.10812 c 1.03059,-1.03059 0.66581,-4.07146 -1.42418,-11.87219 -0.45591,-1.70162 0.27175,-3.40132 1.45613,-3.40132 0.33245,0 0.60445,-0.23865 0.60445,-0.53033 0,-0.29168 0.35071,-0.53033 0.77936,-0.53033 0.42865,0 1.68156,-0.51752 2.78423,-1.15003 1.10268,-0.63253 3.19812,-1.73413 4.65652,-2.448 1.45841,-0.71388 2.77098,-1.44927 2.91682,-1.6342 0.14584,-0.18493 1.33908,-0.9043 2.65165,-1.59859 8.70529,-4.60478 10.52193,-5.62471 12.02963,-6.75398 0.9285,-0.69544 1.84009,-1.26444 2.02576,-1.26444 0.18567,0 1.37818,-0.71595 2.65001,-1.59099 1.27183,-0.87505 2.45607,-1.59099 2.63165,-1.59099 0.17558,0 2.1924,-1.31257 4.48184,-2.91682 2.28943,-1.60424 4.4296,-2.91681 4.75593,-2.91681 0.32634,0 0.59334,-0.1872 0.59334,-0.41599 0,-0.22879 0.65628,-0.80937 1.4584,-1.29017 0.80213,-0.48081 1.93571,-1.24421 2.51907,-1.69646 0.58336,-0.45225 2.85053,-2.19582 5.03814,-3.87461 7.38195,-5.66495 10.07627,-8.00577 10.07627,-8.75424 0,-0.29066 -2.51578,-3.02906 -5.59062,-6.08532 -4.18695,-4.16166 -5.81808,-5.46535 -6.49654,-5.19241 -0.49826,0.20044 -2.69579,0.68426 -4.8834,1.07516 -2.18762,0.3909 -5.0514,0.98286 -6.36397,1.31547 -1.31256,0.33261 -3.72078,0.81657 -5.35159,1.07547 -1.63081,0.25891 -3.56026,0.69701 -4.28767,0.97357 -1.54376,0.58694 -47.63638,46.4458 -47.63638,47.39479 0,0.94398 15.50437,16.29384 16.46674,16.30264 0.45211,0.004 1.10839,-0.27886 1.45841,-0.62888 z M 470.14864,96.43171 C 483.457,83.8528 503.0885,62.90408 503.0885,61.28168 c 0,-0.21476 0.43584,-0.77644 0.96851,-1.24817 1.3177,-1.16694 6.44433,-9.192 8.20912,-12.85028 1.44105,-2.98721 3.00349,-7.56923 3.01423,-8.83952 0.0205,-2.43263 -4.5658,0.96395 -18.04134,13.36113 -1.61297,1.4839 -3.55543,3.17529 -4.31659,3.75865 -1.33688,1.02462 -7.3701,6.31333 -9.67978,8.48528 -0.62035,0.58337 -2.79163,2.49256 -4.82505,4.24265 -2.03343,1.75008 -4.24307,3.71603 -4.91033,4.36875 -0.66726,0.65273 -4.48474,3.99381 -8.4833,7.42462 -9.0216,7.74066 -9.66517,8.36932 -9.66517,9.44139 0,1.22216 9.06418,10.31988 10.28185,10.31988 0.55079,0 2.57939,-1.49146 4.50799,-3.31435 z m -28.88124,-5.135 c 2.00871,-0.60977 5.38636,-1.47426 7.32969,-1.87598 2.07855,-0.42968 1.82694,-1.55957 -1.01594,-4.56219 -3.42218,-3.61447 -4.22746,-3.50654 -8.73124,1.17023 -4.53992,4.71429 -4.73523,5.76233 -1.07385,5.76233 1.02448,0 2.59558,-0.22247 3.49134,-0.49439 z m 13.88729,-4.93018 c 0.84146,-0.65007 1.79163,-1.42567 2.11148,-1.72358 0.31985,-0.29789 2.20553,-1.97352 4.19039,-3.72361 4.05295,-3.57357 4.36806,-3.84985 8.52792,-7.47719 1.63936,-1.42949 3.49968,-3.07638 4.13404,-3.65974 0.63436,-0.58337 2.81814,-2.48806 4.85283,-4.23265 2.0347,-1.74459 4.05742,-3.53445 4.49494,-3.97747 0.43752,-0.44303 2.46604,-2.23393 4.50781,-3.9798 2.04177,-1.74586 3.83163,-3.29708 3.97747,-3.44714 0.14584,-0.15007 1.93223,-1.70474 3.96975,-3.45483 2.03751,-1.75009 4.72859,-4.19623 5.98016,-5.43588 1.25158,-1.23965 2.45559,-2.2539 2.67558,-2.2539 0.21999,0 2.44335,-1.96885 4.94081,-4.37523 4.84261,-4.666 5.53499,-6.11097 4.8755,-10.17497 -0.40857,-2.51772 -3.16139,-5.3679 -5.89566,-6.10416 -4.76845,-1.28401 -3.83005,-2.0602 -34.15517,28.25088 -15.2538,15.24674 -28.0434,28.10545 -28.42132,28.5749 -0.59417,0.73809 -0.17012,1.36245 3.13438,4.61493 2.10183,2.06876 3.98973,3.76137 4.19534,3.76137 0.20561,0 1.0623,-0.53186 1.90375,-1.18193 z m -32.94152,-2.51621 c 1.4584,-0.32626 3.72557,-0.80594 5.03813,-1.06596 1.31257,-0.26002 3.46041,-0.74131 4.77297,-1.06953 1.31257,-0.32822 3.52965,-0.77891 4.92685,-1.00153 1.3972,-0.22262 2.92092,-0.78532 3.38606,-1.25046 0.77402,-0.77402 0.39433,-1.29862 -4.48112,-6.19114 -2.92974,-2.93999 -5.62128,-5.34545 -5.98122,-5.34545 -0.89398,0 -15.35146,14.63471 -15.35146,15.53965 0,1.65237 1.65255,1.73498 7.68979,0.38442 z m 49.92985,-33.33143 c 15.12408,-15.116 28.21741,-27.97901 29.09628,-28.58448 0.87886,-0.60546 2.19143,-1.18451 2.91681,-1.28677 0.85128,-0.12001 1.37451,-0.57499 1.47578,-1.28329 0.11973,-0.83735 -0.38289,-1.3555 -2.12132,-2.18688 -5.09849,-2.43826 -6.61928,-2.74346 -9.01498,-1.80913 -0.67001,0.26131 -2.29211,0.78308 -3.60468,1.15948 -1.31256,0.37641 -2.9831,1.06615 -3.71231,1.53275 -0.7292,0.4666 -2.04177,1.19736 -2.91681,1.62391 -0.87505,0.42655 -1.71032,0.90307 -1.85616,1.05895 -0.14584,0.15588 -1.45841,1.04259 -2.91681,1.97048 -1.45841,0.92788 -3.24883,2.23262 -3.97871,2.89941 -0.72988,0.66679 -2.75611,2.28627 -4.50273,3.59883 -3.03598,2.28151 -5.48052,4.32741 -7.9208,6.62913 -0.61849,0.58336 -2.19262,1.99017 -3.49807,3.12625 -5.68705,4.94916 -25.73826,24.23655 -27.48796,26.44085 -0.64069,0.80715 -0.0922,1.54419 5.02334,6.75012 3.1584,3.21421 6.14265,5.84402 6.63167,5.84402 0.48901,0 13.26337,-12.36763 28.38746,-27.48363 z m 62.36754,-24.80557 c 1.58578,-0.5219 2.51907,-1.13802 2.51907,-1.66301 0,-0.45867 -3.34108,-4.13535 -7.42462,-8.1704 -4.08354,-4.03504 -7.42462,-7.7597601 -7.42462,-8.2771401 0,-0.51738 4.29567,-5.2314 9.54594,-10.47559 6.29216,-6.28488 9.54594,-9.9129499 9.54594,-10.6440399 0,-0.67421 -0.5719,-1.40392 -1.45841,-1.86084 -0.80212,-0.41342 -1.57773,-0.87176 -1.72357,-1.01853 -0.42176,-0.424453 -2.75871,-1.453209 -4.71952,-2.077609 -2.33005,-0.741969 -10.50807,-0.741248 -12.83482,0.0011 -9.98657,3.186429 -16.91712,12.3277389 -16.91712,22.3135289 0,11.0892301 8.52218,21.1714201 19.35705,22.9004401 2.60551,0.41579 8.83478,-0.13932 11.53468,-1.02787 z m 9.2486,-6.22055 c 3.46483,-3.70391 4.72563,-5.96983 5.78421,-10.3954001 0.87688,-3.66592 0.92169,-6.6974 0.14743,-9.97383996 -1.0881,-4.60451004 -4.57727,-10.74678994 -6.10479,-10.74678994 -0.90873,0 -19.2843,18.3081999 -19.2843,19.2135899 0,0.4159 2.98311,3.6833001 6.62912,7.2608801 3.64602,3.57759 6.62913,6.70125 6.62913,6.94148 0,0.51001 0.96095,0.95415 2.1931,1.01363 0.477,0.023 2.27975,-1.46807 4.0061,-3.31355 z"
       style="fill:#2c567a;fill-opacity:1;stroke:#2c567a;stroke-width:0.53033006;stroke-opacity:1" />
    <path
       inkscape:connector-curvature="0"
       id="path4815"
       d="m 540.96162,9.9776999 c -0.19039,-0.11801 -0.20932,-0.16356 -0.25006,-0.60188 -0.0397,-0.42729 -0.03,-0.48914 0.0978,-0.62518 0.078,-0.083 0.19725,-0.35414 0.26497,-0.60245 0.09,-0.3301 0.17165,-0.48712 0.30359,-0.58406 0.50709,-0.37257 0.59113,-0.58261 0.69893,-1.74665 0.0568,-0.61369 0.0569,-1.03677 1.6e-4,-1.69042 -0.096,-1.10604 -0.20521,-1.43284 -0.58506,-1.75035 -0.23498,-0.19642 -0.29117,-0.2852 -0.29117,-0.46003 0,-0.18672 0.0374,-0.23569 0.27062,-0.35469 0.14884,-0.0759 0.32037,-0.23037 0.38118,-0.34319 0.21697,-0.40257996 0.31104,-0.45812996 0.69262,-0.40904996 0.53503,0.0688 0.65821,0.19153996 0.83572,0.83248996 0.24483,0.88401 0.6084,1.92531 0.75946,2.17516 0.12251,0.20261 0.13925,0.33189 0.13728,1.06066 -0.002,0.70147 -0.0232,0.87095 -0.13742,1.09508 -0.24079,0.47234 -0.81785,2.47078 -0.81807,2.83312 -3e-5,0.0633 -0.11479,0.1876 -0.25501,0.27612 -0.22662,0.14306 -0.47426,0.50395 -0.47426,0.69114 0,0.0374 -0.0786,0.12986 -0.17467,0.20543 -0.24253,0.1907801 -1.148,0.1900001 -1.45657,-10e-4 z"
       style="fill:#2c567a;fill-opacity:1;stroke:#2c567a;stroke-width:0.06629126;stroke-opacity:1" />
  </g>
</svg>
